<svg width="37" height="37" viewBox="0 0 37 37" fill="none" xmlns="http://www.w3.org/2000/svg">
<g clip-path="url(#clip0_596_13659)">
<path d="M8.48047 30.7517L8.87127 30.7697C8.93195 30.7725 8.99094 30.7981 9.03305 30.8403C9.07791 30.8851 9.1047 30.9501 9.1047 31.0142C9.1047 31.0778 9.07791 31.1425 9.03305 31.1874C8.99094 31.2294 8.93209 31.2551 8.87127 31.2579L8.48047 31.2758V35.3653H13.2002V27.3446H8.48047V30.7517Z" fill="#9FA7BF"/>
<path d="M13.2156 19.4811H11.0859V23.5496H13.2156V19.4811Z" fill="#A0D2F0"/>
<path d="M13.2156 11.6455H11.0859V15.7132H13.2156V11.6455Z" fill="#A0D2F0"/>
<path d="M13.2156 3.78198H11.0859V7.8497H13.2156V3.78198Z" fill="#A0D2F0"/>
<path d="M10.5945 3.78198H8.46484V7.8497H10.5945V3.78198Z" fill="#DAF0FD"/>
<path d="M10.5945 11.6455H8.46484V15.7132H10.5945V11.6455Z" fill="#DAF0FD"/>
<path d="M10.5945 19.4811H8.46484V23.5496H10.5945V19.4811Z" fill="#DAF0FD"/>
<path d="M18.4832 27.3446H16.3535V31.4132H18.4832V27.3446Z" fill="#DAF0FD"/>
<path d="M18.4832 19.4811H16.3535V23.5496H18.4832V19.4811Z" fill="#DAF0FD"/>
<path d="M18.4832 11.6455H16.3535V15.7132H18.4832V11.6455Z" fill="#DAF0FD"/>
<path d="M18.4832 3.78198H16.3535V7.8497H18.4832V3.78198Z" fill="#DAF0FD"/>
<path d="M21.1053 3.78198H18.9756V7.8497H21.1053V3.78198Z" fill="#A0D2F0"/>
<path d="M21.1053 11.6455H18.9756V15.7132H21.1053V11.6455Z" fill="#A0D2F0"/>
<path d="M21.1053 19.4811H18.9756V23.5496H21.1053V19.4811Z" fill="#A0D2F0"/>
<path d="M21.1053 27.3446H18.9756V31.4132H21.1053V27.3446Z" fill="#A0D2F0"/>
<path d="M26.368 19.4811H24.2383V23.5496H26.368V19.4811Z" fill="#DAF0FD"/>
<path d="M26.368 27.3446H24.2383V31.4132H26.368V27.3446Z" fill="#DAF0FD"/>
<path d="M28.9891 27.3446H26.8594V31.4132H28.9891V27.3446Z" fill="#A0D2F0"/>
<path d="M28.9891 19.4811H26.8594V23.5496H28.9891V19.4811Z" fill="#A0D2F0"/>
<path d="M26.368 11.6455H24.2383V15.7132H26.368V11.6455Z" fill="#DAF0FD"/>
<path d="M28.9891 11.6455H26.8594V15.7132H28.9891V11.6455Z" fill="#A0D2F0"/>
<path d="M26.368 3.78198H24.2383V7.8497H26.368V3.78198Z" fill="#DAF0FD"/>
<path d="M28.9891 3.78198H26.8594V7.8497H28.9891V3.78198Z" fill="#A0D2F0"/>
<path d="M5.8418 1.16736V35.3653H7.98872V27.0988C7.98872 26.9633 8.09897 26.8531 8.23446 26.8531H13.4457C13.5812 26.8531 13.6914 26.9633 13.6914 27.0988V35.3653H31.5415V1.16736H5.8418ZM13.7068 8.09539C13.7068 8.23088 13.5966 8.34113 13.4611 8.34113H8.21878C8.08329 8.34113 7.97304 8.23088 7.97304 8.09539V3.53619C7.97304 3.40069 8.08329 3.29044 8.21878 3.29044H13.4611C13.5966 3.29044 13.7068 3.40069 13.7068 3.53619V8.09539ZM7.97311 11.3997C7.97311 11.2642 8.08336 11.1539 8.21885 11.1539H13.4611C13.5966 11.1539 13.7069 11.2642 13.7069 11.3997V15.9589C13.7069 16.0943 13.5966 16.2046 13.4611 16.2046H8.21885C8.08336 16.2046 7.97311 16.0943 7.97311 15.9589V11.3997ZM7.97311 19.2353C7.97311 19.0998 8.08336 18.9895 8.21885 18.9895H13.4611C13.5966 18.9895 13.7069 19.0998 13.7069 19.2353V23.7953C13.7069 23.9307 13.5966 24.041 13.4611 24.041H8.21885C8.08336 24.041 7.97311 23.9307 7.97311 23.7953V19.2353ZM21.5957 8.09539C21.5957 8.23088 21.4855 8.34113 21.35 8.34113H16.1077C15.9722 8.34113 15.862 8.23088 15.862 8.09539V3.53619C15.862 3.40069 15.9722 3.29044 16.1077 3.29044H21.35C21.4855 3.29044 21.5957 3.40069 21.5957 3.53619V8.09539ZM15.862 11.3997C15.862 11.2642 15.9722 11.1539 16.1077 11.1539H21.35C21.4855 11.1539 21.5957 11.2642 21.5957 11.3997V15.9589C21.5957 16.0943 21.4855 16.2046 21.35 16.2046H16.1077C15.9722 16.2046 15.862 16.0943 15.862 15.9589V11.3997ZM15.862 19.2353C15.862 19.0998 15.9722 18.9895 16.1077 18.9895H21.35C21.4855 18.9895 21.5957 19.0998 21.5957 19.2353V23.7953C21.5957 23.9307 21.4855 24.041 21.35 24.041H16.1077C15.9722 24.041 15.862 23.9307 15.862 23.7953V19.2353ZM15.862 27.0988C15.862 26.9633 15.9722 26.8531 16.1077 26.8531H21.35C21.4855 26.8531 21.5957 26.9633 21.5957 27.0988V31.6588C21.5957 31.7943 21.4855 31.9045 21.35 31.9045H16.1077C15.9722 31.9045 15.862 31.7943 15.862 31.6588V27.0988ZM29.4797 8.09539C29.4797 8.23088 29.3695 8.34113 29.234 8.34113H23.9917C23.8562 8.34113 23.746 8.23088 23.746 8.09539V3.53619C23.746 3.40069 23.8562 3.29044 23.9917 3.29044H29.234C29.3695 3.29044 29.4797 3.40069 29.4797 3.53619V8.09539ZM23.746 11.3997C23.746 11.2642 23.8562 11.1539 23.9917 11.1539H29.234C29.3695 11.1539 29.4797 11.2642 29.4797 11.3997V15.9589C29.4797 16.0943 29.3695 16.2046 29.234 16.2046H23.9917C23.8562 16.2046 23.746 16.0943 23.746 15.9589V11.3997ZM23.746 19.2353C23.746 19.0998 23.8562 18.9895 23.9917 18.9895H29.234C29.3695 18.9895 29.4797 19.0998 29.4797 19.2353V23.7953C29.4797 23.9307 29.3695 24.041 29.234 24.041H23.9917C23.8562 24.041 23.746 23.9307 23.746 23.7953V19.2353ZM23.746 27.0988C23.746 26.9633 23.8562 26.8531 23.9917 26.8531H29.234C29.3695 26.8531 29.4797 26.9633 29.4797 27.0988V31.6588C29.4797 31.7943 29.3695 31.9045 29.234 31.9045H23.9917C23.8562 31.9045 23.746 31.7943 23.746 31.6588V27.0988Z" fill="#82B1E1"/>
<path d="M32.4422 34.9583C32.7813 34.9828 33.05 35.2655 33.05 35.6111C33.05 35.9732 32.756 36.2664 32.3947 36.2664H4.94047C4.57843 36.2664 4.28516 35.9732 4.28516 35.6111C4.28516 35.2491 4.57843 34.9558 4.94047 34.9558V1.57614C4.58827 1.56468 4.30646 1.27633 4.30646 0.92167C4.30646 0.559631 4.59973 0.266357 4.96177 0.266357H32.3734C32.7354 0.266357 33.0287 0.559631 33.0287 0.92167C33.0287 1.25994 32.7715 1.53845 32.4422 1.57368V34.9583ZM31.1316 34.9558V1.57691H6.25102V34.9557H7.5788V27.0989C7.5788 26.7377 7.87208 26.4436 8.23412 26.4436H13.4453C13.8074 26.4436 14.1006 26.7376 14.1006 27.0989V34.9558H31.1316ZM12.79 34.9558V27.7541H8.88943V30.3605C9.0508 30.3679 9.20724 30.4359 9.32192 30.5506C9.44398 30.6726 9.51359 30.8414 9.51359 31.0142C9.51359 31.1862 9.44398 31.355 9.32192 31.477C9.20724 31.5917 9.0508 31.6597 8.88943 31.6671V34.9558H12.79Z" fill="black"/>
<path d="M29.8898 27.0989V31.6589C29.8898 32.0209 29.5966 32.3142 29.2345 32.3142H23.9922C23.631 32.3142 23.3369 32.0209 23.3369 31.6589V27.0989C23.3369 26.7377 23.631 26.4436 23.9922 26.4436H29.2345C29.5966 26.4436 29.8898 26.7377 29.8898 27.0989ZM28.5792 31.0036V27.7542H27.2686V31.0036H28.5792ZM25.9581 31.0036V27.7542H24.6475V31.0036H25.9581Z" fill="black"/>
<path d="M29.8898 19.2354V23.7954C29.8898 24.1574 29.5966 24.4507 29.2345 24.4507H23.9922C23.631 24.4507 23.3369 24.1574 23.3369 23.7954V19.2354C23.3369 18.8742 23.631 18.5801 23.9922 18.5801H29.2345C29.5966 18.5801 29.8898 18.8742 29.8898 19.2354ZM28.5792 23.1401V19.8907H27.2686V23.1401H28.5792ZM25.9581 23.1401V19.8907H24.6475V23.1401H25.9581Z" fill="black"/>
<path d="M29.8898 11.3997V15.9589C29.8898 16.3209 29.5966 16.6142 29.2345 16.6142H23.9922C23.631 16.6142 23.3369 16.3209 23.3369 15.9589V11.3997C23.3369 11.0377 23.631 10.7444 23.9922 10.7444H29.2345C29.5966 10.7445 29.8898 11.0377 29.8898 11.3997ZM28.5792 15.3036V12.055H27.2686V15.3036H28.5792ZM25.9581 15.3036V12.055H24.6475V15.3036H25.9581Z" fill="black"/>
<path d="M29.8898 3.53629V8.0955C29.8898 8.45754 29.5966 8.75081 29.2345 8.75081H23.9922C23.631 8.75081 23.3369 8.45754 23.3369 8.0955V3.53629C23.3369 3.17425 23.631 2.88098 23.9922 2.88098H29.2345C29.5966 2.88105 29.8898 3.17425 29.8898 3.53629ZM28.5792 7.44018V4.19161H27.2686V7.44018H28.5792ZM25.9581 7.44018V4.19161H24.6475V7.44018H25.9581Z" fill="black"/>
<path d="M22.0051 27.0989V31.6589C22.0051 32.0209 21.7118 32.3142 21.3498 32.3142H16.1075C15.7463 32.3142 15.4521 32.0209 15.4521 31.6589V27.0989C15.4521 26.7377 15.7462 26.4436 16.1075 26.4436H21.3498C21.7119 26.4436 22.0051 26.7377 22.0051 27.0989ZM20.6945 31.0036V27.7542H19.384V31.0036H20.6945ZM18.0733 31.0036V27.7542H16.7628V31.0036H18.0733Z" fill="black"/>
<path d="M22.0051 19.2354V23.7954C22.0051 24.1574 21.7118 24.4507 21.3498 24.4507H16.1075C15.7463 24.4507 15.4521 24.1574 15.4521 23.7954V19.2354C15.4521 18.8742 15.7462 18.5801 16.1075 18.5801H21.3498C21.7119 18.5801 22.0051 18.8742 22.0051 19.2354ZM20.6945 23.1401V19.8907H19.384V23.1401H20.6945ZM18.0733 23.1401V19.8907H16.7628V23.1401H18.0733Z" fill="black"/>
<path d="M22.0051 11.3997V15.9589C22.0051 16.3209 21.7118 16.6142 21.3498 16.6142H16.1075C15.7463 16.6142 15.4521 16.3209 15.4521 15.9589V11.3997C15.4521 11.0377 15.7462 10.7444 16.1075 10.7444H21.3498C21.7119 10.7445 22.0051 11.0377 22.0051 11.3997ZM20.6945 15.3036V12.055H19.384V15.3036H20.6945ZM18.0733 15.3036V12.055H16.7628V15.3036H18.0733Z" fill="black"/>
<path d="M22.0051 3.53629V8.0955C22.0051 8.45754 21.7118 8.75081 21.3498 8.75081H16.1075C15.7463 8.75081 15.4521 8.45754 15.4521 8.0955V3.53629C15.4521 3.17425 15.7462 2.88098 16.1075 2.88098H21.3498C21.7119 2.88105 22.0051 3.17425 22.0051 3.53629ZM20.6945 7.44018V4.19161H19.384V7.44018H20.6945ZM18.0733 7.44018V4.19161H16.7628V7.44018H18.0733Z" fill="black"/>
<path d="M14.1164 19.2354V23.7954C14.1164 24.1574 13.8231 24.4507 13.4611 24.4507H8.21879C7.85675 24.4507 7.56348 24.1574 7.56348 23.7954V19.2354C7.56348 18.8742 7.85675 18.5801 8.21879 18.5801H13.4611C13.8231 18.5801 14.1164 18.8742 14.1164 19.2354ZM12.8058 23.1401V19.8907H11.4952V23.1401H12.8058ZM10.1847 23.1401V19.8907H8.8741V23.1401H10.1847Z" fill="black"/>
<path d="M14.1164 11.3997V15.9589C14.1164 16.3209 13.8231 16.6142 13.4611 16.6142H8.21879C7.85675 16.6142 7.56348 16.3209 7.56348 15.9589V11.3997C7.56348 11.0377 7.85675 10.7444 8.21879 10.7444H13.4611C13.8231 10.7445 14.1164 11.0377 14.1164 11.3997ZM12.8058 15.3036V12.055H11.4952V15.3036H12.8058ZM10.1847 15.3036V12.055H8.8741V15.3036H10.1847Z" fill="black"/>
<path d="M14.1164 3.53629V8.0955C14.1164 8.45754 13.8231 8.75081 13.4611 8.75081H8.21879C7.85675 8.75081 7.56348 8.45754 7.56348 8.0955V3.53629C7.56348 3.17425 7.85675 2.88098 8.21879 2.88098H13.4611C13.8231 2.88105 14.1164 3.17425 14.1164 3.53629ZM12.8058 7.44018V4.19161H11.4952V7.44018H12.8058ZM10.1847 7.44018V4.19161H8.8741V7.44018H10.1847Z" fill="black"/>
</g>
<defs>
<clipPath id="clip0_596_13659">
<rect width="36" height="36" fill="white" transform="translate(0.667969 0.266357)"/>
</clipPath>
</defs>
</svg>
