<svg width="37" height="28" viewBox="0 0 37 28" fill="none" xmlns="http://www.w3.org/2000/svg">
<path d="M24.5783 11.2344H22.7549V14.1246H24.5783V11.2344Z" fill="#FFD039"/>
<path d="M24.5789 11.2344H23.8613V14.1246H24.5789V11.2344Z" fill="#EAB932"/>
<path d="M27.972 17.8413V21.7755H23.251H18.5791V17.8413H20.5462H26.0049H27.972Z" fill="#FFD039"/>
<path d="M24.2375 21.5286V26.0069H18.8174V21.4467H24.2375V21.5286Z" fill="#CCCCCC"/>
<path d="M28.006 21.4467V26.0069H23.2549V21.5286V21.4467H28.006Z" fill="#999999"/>
<path d="M27.1865 17.5693V17.7957H18.4961V18.7845H27.1865V21.0971V26.0069H33.6578V17.5693H27.1865Z" fill="#EAB932"/>
<path d="M30.4226 13.4189H24.5787H22.7553H21.9034L19.0159 16.2335L18.5244 18.17H25.5486H27.1869H33.6582H35.2965L30.4226 13.4189Z" fill="#3B9DFF"/>
<path d="M35.2967 18.17H33.6584H27.1871H25.5488L30.4228 13.4189L35.2967 18.17Z" fill="#1E79C4"/>
<path d="M30.4308 17.0765C30.7701 17.0765 31.0451 16.8014 31.0451 16.4621C31.0451 16.1228 30.7701 15.8478 30.4308 15.8478C30.0915 15.8478 29.8164 16.1228 29.8164 16.4621C29.8164 16.8014 30.0915 17.0765 30.4308 17.0765Z" fill="#666666"/>
<path d="M13.8756 17.7957H4.28418V21.993H13.8756V17.7957Z" fill="#FFD039"/>
<path d="M14.7282 21.5286V26.0069H5.52907H2.99609V21.4467H5.52907H14.7282V21.5286Z" fill="#CCCCCC"/>
<path d="M10.8723 11.2344H9.04883V14.1246H10.8723V11.2344Z" fill="#FFD039"/>
<path d="M10.8719 11.2344H10.1543V14.1246H10.8719V11.2344Z" fill="#EAB932"/>
<path d="M12.8927 17.5696V17.7957H4.28418V18.7844H12.8927V26.0068H19.364V17.5696H12.8927Z" fill="#EAB932"/>
<path d="M21.0024 18.17L19.016 16.2335L16.1285 13.4189H10.872H9.04854H7.60929L2.73535 18.17H19.3641H21.0024Z" fill="#ED2E2E"/>
<path d="M12.8929 21.4467H8.96094V26.0069H12.8929V21.4467Z" fill="#999999"/>
<path d="M14.8995 18.9893C14.5602 18.9893 14.2852 19.2643 14.2852 19.6036V20.6685C14.2852 21.0078 14.5602 21.2829 14.8995 21.2829C15.2388 21.2829 15.5139 21.0078 15.5139 20.6685V19.6036C15.5139 19.2643 15.2388 18.9893 14.8995 18.9893Z" fill="#666666"/>
<path d="M6.70811 18.9893C6.36882 18.9893 6.09375 19.2643 6.09375 19.6036V20.6685C6.09375 21.0078 6.36882 21.2829 6.70811 21.2829C7.0474 21.2829 7.32247 21.0078 7.32247 20.6685V19.6036C7.32247 19.2643 7.0474 18.9893 6.70811 18.9893Z" fill="#666666"/>
<path d="M9.98448 18.9893C9.64519 18.9893 9.37012 19.2643 9.37012 19.6036V20.6685C9.37012 21.0078 9.64519 21.2829 9.98448 21.2829C10.3238 21.2829 10.5988 21.0078 10.5988 20.6685V19.6036C10.5988 19.2643 10.3238 18.9893 9.98448 18.9893Z" fill="#666666"/>
<path d="M21.4112 18.9893C21.0719 18.9893 20.7969 19.2643 20.7969 19.6036V20.6685C20.7969 21.0078 21.0719 21.2829 21.4112 21.2829C21.7505 21.2829 22.0256 21.0078 22.0256 20.6685V19.6036C22.0256 19.2643 21.7505 18.9893 21.4112 18.9893Z" fill="#666666"/>
<path d="M24.6886 18.9893C24.3493 18.9893 24.0742 19.2643 24.0742 19.6036V20.6685C24.0742 21.0078 24.3493 21.2829 24.6886 21.2829C25.0279 21.2829 25.3029 21.0078 25.3029 20.6685V19.6036C25.3029 19.2643 25.0279 18.9893 24.6886 18.9893Z" fill="#666666"/>
<path d="M17.3565 21.2829C17.6958 21.2829 17.9709 21.0078 17.9709 20.6685V19.6036C17.9709 19.2643 17.6958 18.9893 17.3565 18.9893C17.0173 18.9893 16.7422 19.2643 16.7422 19.6036V20.6685C16.7422 21.0078 17.0173 21.2829 17.3565 21.2829Z" fill="#666666"/>
<path d="M14.8995 22.1431C14.5602 22.1431 14.2852 22.4181 14.2852 22.7574V23.8223C14.2852 24.1616 14.5602 24.4367 14.8995 24.4367C15.2388 24.4367 15.5139 24.1616 15.5139 23.8223V22.7574C15.5139 22.4181 15.2388 22.1431 14.8995 22.1431Z" fill="#666666"/>
<path d="M17.9709 23.8223V22.7574C17.9709 22.4181 17.6958 22.1431 17.3565 22.1431C17.0173 22.1431 16.7422 22.4181 16.7422 22.7574V23.8223C16.7422 24.1616 17.0173 24.4367 17.3565 24.4367C17.6958 24.4367 17.9709 24.1616 17.9709 23.8223Z" fill="#666666"/>
<path d="M29.1935 21.2829C29.5328 21.2829 29.8078 21.0078 29.8078 20.6685V19.6036C29.8078 19.2643 29.5328 18.9893 29.1935 18.9893C28.8542 18.9893 28.5791 19.2643 28.5791 19.6036V20.6685C28.5791 21.0078 28.8542 21.2829 29.1935 21.2829Z" fill="#666666"/>
<path d="M31.6505 21.2829C31.9898 21.2829 32.2649 21.0078 32.2649 20.6685V19.6036C32.2649 19.2643 31.9898 18.9893 31.6505 18.9893C31.3112 18.9893 31.0361 19.2643 31.0361 19.6036V20.6685C31.0361 21.0078 31.3112 21.2829 31.6505 21.2829Z" fill="#666666"/>
<path d="M29.1935 24.4367C29.5328 24.4367 29.8078 24.1616 29.8078 23.8223V22.7574C29.8078 22.4181 29.5328 22.1431 29.1935 22.1431C28.8542 22.1431 28.5791 22.4181 28.5791 22.7574V23.8223C28.5791 24.1616 28.8542 24.4367 29.1935 24.4367Z" fill="#666666"/>
<path d="M31.6505 24.4367C31.9898 24.4367 32.2649 24.1616 32.2649 23.8223V22.7574C32.2649 22.4181 31.9898 22.1431 31.6505 22.1431C31.3112 22.1431 31.0361 22.4181 31.0361 22.7574V23.8223C31.0361 24.1616 31.3112 24.4367 31.6505 24.4367Z" fill="#666666"/>
<path d="M11.2201 21.4467H10.8105V26.0069H11.2201V21.4467Z" fill="#666666"/>
<path d="M25.5551 21.4467H25.1455V26.0069H25.5551V21.4467Z" fill="#666666"/>
<path d="M36.251 27.9045H0.250977C0.250977 27.5417 0.34354 27.2009 0.506551 26.9035C0.602392 26.7282 0.722807 26.5685 0.862882 26.4284C1.24051 26.05 1.76313 25.8165 2.33981 25.8165H34.1621C34.9526 25.8165 35.6407 26.2556 35.9954 26.9035C36.1584 27.2009 36.251 27.5417 36.251 27.9045Z" fill="#0FBC30"/>
<path d="M36.251 27.9046H0.250977C0.250977 27.5417 0.34354 27.2009 0.506551 26.9036H35.9954C36.1584 27.2009 36.251 27.5417 36.251 27.9046Z" fill="#07A521"/>
<path d="M21.0023 18.17H19.364H11.2822L16.1283 13.4189L19.0158 16.2335L21.0023 18.17Z" fill="#D82525"/>
<path d="M16.1251 17.0765C16.4644 17.0765 16.7395 16.8014 16.7395 16.4621C16.7395 16.1228 16.4644 15.8478 16.1251 15.8478C15.7858 15.8478 15.5107 16.1228 15.5107 16.4621C15.5107 16.8014 15.7858 17.0765 16.1251 17.0765Z" fill="#666666"/>
<path d="M12.0459 4.99003C11.3497 4.99003 10.3697 7.28364 10.4639 7.33771L10.4631 7.33853C9.70866 8.26744 8.55694 8.86051 7.2676 8.86051C4.99445 8.86051 3.15137 7.01742 3.15137 4.74428C3.15137 2.47114 4.99445 0.628052 7.2676 0.628052C8.70029 0.628052 9.9626 1.36037 10.699 2.47114L12.0459 4.99003Z" fill="#EAB932"/>
<path d="M11.3837 4.74512C11.3837 7.01826 9.5406 8.86053 7.26746 8.86053C6.9013 8.86053 6.54579 8.81301 6.20748 8.72291C5.53495 8.07496 5.11719 7.1657 5.11719 6.15815C5.11719 4.18973 6.71289 2.59485 8.68049 2.59485C9.68804 2.59485 10.5973 3.01261 11.2461 3.68514C11.3362 4.02345 11.3837 4.37896 11.3837 4.74512Z" fill="#FFD039"/>
<path d="M18.1201 5.35869C18.3487 5.58642 18.4896 5.90179 18.4896 6.24911C18.4896 6.94457 17.9252 7.50896 17.2297 7.50896H11.0976C10.8666 7.50896 10.6503 7.44671 10.4644 7.33776C10.3702 7.2837 10.2833 7.21653 10.2063 7.13953C9.97862 6.9118 9.83772 6.59643 9.83772 6.24911C9.83772 5.55365 10.4013 4.99008 11.0976 4.99008H7.48349C7.13535 4.99008 6.82079 4.84918 6.59307 4.62146C6.36453 4.39292 6.22363 4.07836 6.22363 3.73022C6.22363 3.03477 6.78803 2.47119 7.48349 2.47119H10.6995H13.6156C13.9638 2.47119 14.2783 2.61209 14.5069 2.83981C14.7346 3.06753 14.8755 3.38209 14.8755 3.73022C14.8755 4.4265 14.3119 4.99008 13.6156 4.99008H17.2297C17.5779 4.99008 17.8924 5.13097 18.1201 5.35869Z" fill="#3B9DFF"/>
</svg>
