<svg width="1036" height="505" viewBox="0 0 1036 505" fill="none" xmlns="http://www.w3.org/2000/svg">
<rect x="516.872" y="-1032.49" width="728.874" height="735" transform="rotate(45 516.872 -1032.49)" stroke="url(#paint0_linear_310_23582)" stroke-opacity="0.05" stroke-width="4"/>
<rect x="516.872" y="-1016.72" width="728.874" height="735" transform="rotate(45 516.872 -1016.72)" stroke="url(#paint1_linear_310_23582)" stroke-opacity="0.05" stroke-width="4"/>
<rect x="516.872" y="-1000.95" width="728.874" height="735" transform="rotate(45 516.872 -1000.95)" stroke="url(#paint2_linear_310_23582)" stroke-opacity="0.05" stroke-width="4"/>
<rect x="516.872" y="-985.176" width="728.874" height="735" transform="rotate(45 516.872 -985.176)" stroke="url(#paint3_linear_310_23582)" stroke-opacity="0.05" stroke-width="4"/>
<rect x="516.872" y="-969.404" width="728.874" height="735" transform="rotate(45 516.872 -969.404)" stroke="url(#paint4_linear_310_23582)" stroke-opacity="0.05" stroke-width="4"/>
<rect x="516.872" y="-953.632" width="728.874" height="735" transform="rotate(45 516.872 -953.632)" stroke="url(#paint5_linear_310_23582)" stroke-opacity="0.05" stroke-width="4"/>
<rect x="516.872" y="-937.859" width="728.874" height="735" transform="rotate(45 516.872 -937.859)" stroke="url(#paint6_linear_310_23582)" stroke-opacity="0.05" stroke-width="4"/>
<rect x="516.872" y="-922.087" width="728.874" height="735" transform="rotate(45 516.872 -922.087)" stroke="url(#paint7_linear_310_23582)" stroke-opacity="0.05" stroke-width="4"/>
<rect x="516.872" y="-906.315" width="728.874" height="735" transform="rotate(45 516.872 -906.315)" stroke="url(#paint8_linear_310_23582)" stroke-opacity="0.05" stroke-width="4"/>
<rect x="516.872" y="-890.542" width="728.874" height="735" transform="rotate(45 516.872 -890.542)" stroke="url(#paint9_linear_310_23582)" stroke-opacity="0.05" stroke-width="4"/>
<rect x="516.872" y="-874.77" width="728.874" height="735" transform="rotate(45 516.872 -874.77)" stroke="url(#paint10_linear_310_23582)" stroke-opacity="0.05" stroke-width="4"/>
<rect x="516.872" y="-858.998" width="728.874" height="735" transform="rotate(45 516.872 -858.998)" stroke="url(#paint11_linear_310_23582)" stroke-opacity="0.05" stroke-width="4"/>
<rect x="516.872" y="-843.225" width="728.874" height="735" transform="rotate(45 516.872 -843.225)" stroke="url(#paint12_linear_310_23582)" stroke-opacity="0.05" stroke-width="4"/>
<rect x="516.872" y="-827.453" width="728.874" height="735" transform="rotate(45 516.872 -827.453)" stroke="url(#paint13_linear_310_23582)" stroke-opacity="0.05" stroke-width="4"/>
<rect x="516.872" y="-811.681" width="728.874" height="735" transform="rotate(45 516.872 -811.681)" stroke="url(#paint14_linear_310_23582)" stroke-opacity="0.05" stroke-width="4"/>
<rect x="516.872" y="-795.908" width="728.874" height="735" transform="rotate(45 516.872 -795.908)" stroke="url(#paint15_linear_310_23582)" stroke-opacity="0.05" stroke-width="4"/>
<rect x="516.872" y="-780.136" width="728.874" height="735" transform="rotate(45 516.872 -780.136)" stroke="url(#paint16_linear_310_23582)" stroke-opacity="0.05" stroke-width="4"/>
<rect x="516.872" y="-764.363" width="728.874" height="735" transform="rotate(45 516.872 -764.363)" stroke="url(#paint17_linear_310_23582)" stroke-opacity="0.05" stroke-width="4"/>
<rect x="516.872" y="-748.591" width="728.874" height="735" transform="rotate(45 516.872 -748.591)" stroke="url(#paint18_linear_310_23582)" stroke-opacity="0.05" stroke-width="4"/>
<rect x="516.872" y="-732.819" width="728.874" height="735" transform="rotate(45 516.872 -732.819)" stroke="url(#paint19_linear_310_23582)" stroke-opacity="0.05" stroke-width="4"/>
<rect x="516.872" y="-717.047" width="728.874" height="735" transform="rotate(45 516.872 -717.047)" stroke="url(#paint20_linear_310_23582)" stroke-opacity="0.05" stroke-width="4"/>
<rect x="516.872" y="-701.274" width="728.874" height="735" transform="rotate(45 516.872 -701.274)" stroke="url(#paint21_linear_310_23582)" stroke-opacity="0.05" stroke-width="4"/>
<rect x="516.872" y="-685.502" width="728.874" height="735" transform="rotate(45 516.872 -685.502)" stroke="url(#paint22_linear_310_23582)" stroke-opacity="0.05" stroke-width="4"/>
<rect x="516.872" y="-669.729" width="728.874" height="735" transform="rotate(45 516.872 -669.729)" stroke="url(#paint23_linear_310_23582)" stroke-opacity="0.05" stroke-width="4"/>
<rect x="516.872" y="-653.957" width="728.874" height="735" transform="rotate(45 516.872 -653.957)" stroke="url(#paint24_linear_310_23582)" stroke-opacity="0.05" stroke-width="4"/>
<rect x="516.872" y="-638.185" width="728.874" height="735" transform="rotate(45 516.872 -638.185)" stroke="url(#paint25_linear_310_23582)" stroke-opacity="0.05" stroke-width="4"/>
<rect x="516.872" y="-622.412" width="728.874" height="735" transform="rotate(45 516.872 -622.412)" stroke="url(#paint26_linear_310_23582)" stroke-opacity="0.05" stroke-width="4"/>
<rect x="516.872" y="-606.64" width="728.874" height="735" transform="rotate(45 516.872 -606.64)" stroke="url(#paint27_linear_310_23582)" stroke-opacity="0.05" stroke-width="4"/>
<rect x="516.872" y="-590.868" width="728.874" height="735" transform="rotate(45 516.872 -590.868)" stroke="url(#paint28_linear_310_23582)" stroke-opacity="0.05" stroke-width="4"/>
<rect x="516.872" y="-575.095" width="728.874" height="735" transform="rotate(45 516.872 -575.095)" stroke="url(#paint29_linear_310_23582)" stroke-opacity="0.05" stroke-width="4"/>
<rect x="516.872" y="-559.323" width="728.874" height="735" transform="rotate(45 516.872 -559.323)" stroke="url(#paint30_linear_310_23582)" stroke-opacity="0.05" stroke-width="4"/>
<defs>
<linearGradient id="paint0_linear_310_23582" x1="883.309" y1="-1035.32" x2="883.309" y2="-296.322" gradientUnits="userSpaceOnUse">
<stop stop-color="#BCBCFF"/>
<stop offset="1" stop-color="#717199"/>
</linearGradient>
<linearGradient id="paint1_linear_310_23582" x1="883.309" y1="-1019.55" x2="883.309" y2="-280.549" gradientUnits="userSpaceOnUse">
<stop stop-color="#BCBCFF"/>
<stop offset="1" stop-color="#717199"/>
</linearGradient>
<linearGradient id="paint2_linear_310_23582" x1="883.309" y1="-1003.78" x2="883.309" y2="-264.777" gradientUnits="userSpaceOnUse">
<stop stop-color="#BCBCFF"/>
<stop offset="1" stop-color="#717199"/>
</linearGradient>
<linearGradient id="paint3_linear_310_23582" x1="883.309" y1="-988.005" x2="883.309" y2="-249.005" gradientUnits="userSpaceOnUse">
<stop stop-color="#BCBCFF"/>
<stop offset="1" stop-color="#717199"/>
</linearGradient>
<linearGradient id="paint4_linear_310_23582" x1="883.309" y1="-972.232" x2="883.309" y2="-233.232" gradientUnits="userSpaceOnUse">
<stop stop-color="#BCBCFF"/>
<stop offset="1" stop-color="#717199"/>
</linearGradient>
<linearGradient id="paint5_linear_310_23582" x1="883.309" y1="-956.46" x2="883.309" y2="-217.46" gradientUnits="userSpaceOnUse">
<stop stop-color="#BCBCFF"/>
<stop offset="1" stop-color="#717199"/>
</linearGradient>
<linearGradient id="paint6_linear_310_23582" x1="883.309" y1="-940.688" x2="883.309" y2="-201.688" gradientUnits="userSpaceOnUse">
<stop stop-color="#BCBCFF"/>
<stop offset="1" stop-color="#717199"/>
</linearGradient>
<linearGradient id="paint7_linear_310_23582" x1="883.309" y1="-924.915" x2="883.309" y2="-185.915" gradientUnits="userSpaceOnUse">
<stop stop-color="#BCBCFF"/>
<stop offset="1" stop-color="#717199"/>
</linearGradient>
<linearGradient id="paint8_linear_310_23582" x1="883.309" y1="-909.143" x2="883.309" y2="-170.143" gradientUnits="userSpaceOnUse">
<stop stop-color="#BCBCFF"/>
<stop offset="1" stop-color="#717199"/>
</linearGradient>
<linearGradient id="paint9_linear_310_23582" x1="883.309" y1="-893.371" x2="883.309" y2="-154.371" gradientUnits="userSpaceOnUse">
<stop stop-color="#BCBCFF"/>
<stop offset="1" stop-color="#717199"/>
</linearGradient>
<linearGradient id="paint10_linear_310_23582" x1="883.309" y1="-877.598" x2="883.309" y2="-138.598" gradientUnits="userSpaceOnUse">
<stop stop-color="#BCBCFF"/>
<stop offset="1" stop-color="#717199"/>
</linearGradient>
<linearGradient id="paint11_linear_310_23582" x1="883.309" y1="-861.826" x2="883.309" y2="-122.826" gradientUnits="userSpaceOnUse">
<stop stop-color="#BCBCFF"/>
<stop offset="1" stop-color="#717199"/>
</linearGradient>
<linearGradient id="paint12_linear_310_23582" x1="883.309" y1="-846.054" x2="883.309" y2="-107.054" gradientUnits="userSpaceOnUse">
<stop stop-color="#BCBCFF"/>
<stop offset="1" stop-color="#717199"/>
</linearGradient>
<linearGradient id="paint13_linear_310_23582" x1="883.309" y1="-830.281" x2="883.309" y2="-91.2814" gradientUnits="userSpaceOnUse">
<stop stop-color="#BCBCFF"/>
<stop offset="1" stop-color="#717199"/>
</linearGradient>
<linearGradient id="paint14_linear_310_23582" x1="883.309" y1="-814.509" x2="883.309" y2="-75.509" gradientUnits="userSpaceOnUse">
<stop stop-color="#BCBCFF"/>
<stop offset="1" stop-color="#717199"/>
</linearGradient>
<linearGradient id="paint15_linear_310_23582" x1="883.309" y1="-798.737" x2="883.309" y2="-59.7366" gradientUnits="userSpaceOnUse">
<stop stop-color="#BCBCFF"/>
<stop offset="1" stop-color="#717199"/>
</linearGradient>
<linearGradient id="paint16_linear_310_23582" x1="883.309" y1="-782.964" x2="883.309" y2="-43.9644" gradientUnits="userSpaceOnUse">
<stop stop-color="#BCBCFF"/>
<stop offset="1" stop-color="#717199"/>
</linearGradient>
<linearGradient id="paint17_linear_310_23582" x1="883.309" y1="-767.192" x2="883.309" y2="-28.1919" gradientUnits="userSpaceOnUse">
<stop stop-color="#BCBCFF"/>
<stop offset="1" stop-color="#717199"/>
</linearGradient>
<linearGradient id="paint18_linear_310_23582" x1="883.309" y1="-751.42" x2="883.309" y2="-12.4196" gradientUnits="userSpaceOnUse">
<stop stop-color="#BCBCFF"/>
<stop offset="1" stop-color="#717199"/>
</linearGradient>
<linearGradient id="paint19_linear_310_23582" x1="883.309" y1="-735.647" x2="883.309" y2="3.35271" gradientUnits="userSpaceOnUse">
<stop stop-color="#BCBCFF"/>
<stop offset="1" stop-color="#717199"/>
</linearGradient>
<linearGradient id="paint20_linear_310_23582" x1="883.309" y1="-719.875" x2="883.309" y2="19.125" gradientUnits="userSpaceOnUse">
<stop stop-color="#BCBCFF"/>
<stop offset="1" stop-color="#717199"/>
</linearGradient>
<linearGradient id="paint21_linear_310_23582" x1="883.309" y1="-704.103" x2="883.309" y2="34.8974" gradientUnits="userSpaceOnUse">
<stop stop-color="#BCBCFF"/>
<stop offset="1" stop-color="#717199"/>
</linearGradient>
<linearGradient id="paint22_linear_310_23582" x1="883.309" y1="-688.33" x2="883.309" y2="50.6697" gradientUnits="userSpaceOnUse">
<stop stop-color="#BCBCFF"/>
<stop offset="1" stop-color="#717199"/>
</linearGradient>
<linearGradient id="paint23_linear_310_23582" x1="883.309" y1="-672.558" x2="883.309" y2="66.4421" gradientUnits="userSpaceOnUse">
<stop stop-color="#BCBCFF"/>
<stop offset="1" stop-color="#717199"/>
</linearGradient>
<linearGradient id="paint24_linear_310_23582" x1="883.309" y1="-656.786" x2="883.309" y2="82.2144" gradientUnits="userSpaceOnUse">
<stop stop-color="#BCBCFF"/>
<stop offset="1" stop-color="#717199"/>
</linearGradient>
<linearGradient id="paint25_linear_310_23582" x1="883.309" y1="-641.013" x2="883.309" y2="97.9867" gradientUnits="userSpaceOnUse">
<stop stop-color="#BCBCFF"/>
<stop offset="1" stop-color="#717199"/>
</linearGradient>
<linearGradient id="paint26_linear_310_23582" x1="883.309" y1="-625.241" x2="883.309" y2="113.759" gradientUnits="userSpaceOnUse">
<stop stop-color="#BCBCFF"/>
<stop offset="1" stop-color="#717199"/>
</linearGradient>
<linearGradient id="paint27_linear_310_23582" x1="883.309" y1="-609.469" x2="883.309" y2="129.531" gradientUnits="userSpaceOnUse">
<stop stop-color="#BCBCFF"/>
<stop offset="1" stop-color="#717199"/>
</linearGradient>
<linearGradient id="paint28_linear_310_23582" x1="883.309" y1="-593.696" x2="883.309" y2="145.304" gradientUnits="userSpaceOnUse">
<stop stop-color="#BCBCFF"/>
<stop offset="1" stop-color="#717199"/>
</linearGradient>
<linearGradient id="paint29_linear_310_23582" x1="883.309" y1="-577.924" x2="883.309" y2="161.076" gradientUnits="userSpaceOnUse">
<stop stop-color="#BCBCFF"/>
<stop offset="1" stop-color="#717199"/>
</linearGradient>
<linearGradient id="paint30_linear_310_23582" x1="883.309" y1="-562.152" x2="883.309" y2="176.848" gradientUnits="userSpaceOnUse">
<stop stop-color="#BCBCFF"/>
<stop offset="1" stop-color="#717199"/>
</linearGradient>
</defs>
</svg>
