<svg width="37" height="36" viewBox="0 0 37 36" fill="none" xmlns="http://www.w3.org/2000/svg">
<g clip-path="url(#clip0_596_13379)">
<path d="M35.8989 34.4754C35.8989 31.8317 28.2508 29.689 18.8164 29.689C9.38205 29.689 1.73438 31.8317 1.73438 34.4754H35.8989Z" fill="#178E3B"/>
<path d="M2.37891 32.8889H34.639V34.1411H2.37891V32.8889Z" fill="#075E54"/>
<path d="M3.64941 6.94253V32.0396C9.02918 28.7734 18.9397 29.0776 23.2225 29.6379V2.13928H10.2537V6.94253H3.64941Z" fill="white" stroke="black"/>
<path d="M27.9053 8.38354V30.2383C29.2498 30.2383 32.7887 31.5992 34.3901 32.2797V8.38354H27.9053Z" fill="white" stroke="black"/>
<path d="M35.582 35.3656H1.41753C1.1747 35.3656 0.941823 35.2718 0.770119 35.1049C0.598415 34.938 0.501953 34.7115 0.501953 34.4755C0.501953 33.5171 1.08836 32.6426 2.24591 31.8767C3.18677 31.2536 4.50651 30.7013 6.16981 30.2354C9.47635 29.3088 13.8563 28.7985 18.5026 28.7985C23.149 28.7985 27.5276 29.3071 30.8354 30.2354C32.4979 30.7017 33.8176 31.2527 34.7593 31.8767C35.9156 32.6426 36.5033 33.5171 36.5033 34.4755C36.5033 34.7115 36.4068 34.938 36.2351 35.1049C36.0634 35.2718 35.8305 35.3656 35.5877 35.3656H35.582ZM2.94567 33.5853H34.0535C33.3895 33.0546 32.1713 32.4633 30.3249 31.9462C27.1784 31.0645 22.9789 30.5792 18.4996 30.5792C14.0202 30.5792 9.82034 31.0645 6.67425 31.9462C4.82827 32.4633 3.60968 33.0546 2.94611 33.5853H2.94567Z" fill="black"/>
<path d="M3.31597 32.9724C3.07314 32.9724 2.84026 32.8786 2.66856 32.7117C2.49685 32.5447 2.40039 32.3183 2.40039 32.0822V6.74916C2.40039 6.51308 2.49685 6.28667 2.66856 6.11974C2.84026 5.9528 3.07314 5.85902 3.31597 5.85902H9.45207V2.05726C9.45207 1.82118 9.54854 1.59477 9.72024 1.42783C9.89194 1.2609 10.1248 1.16711 10.3676 1.16711H23.4116C23.5318 1.16711 23.6509 1.19014 23.7619 1.23487C23.873 1.27961 23.9739 1.34517 24.059 1.42783C24.144 1.51049 24.2114 1.60862 24.2574 1.71661C24.3035 1.82461 24.3271 1.94036 24.3271 2.05726V29.689C24.3271 29.9251 24.2307 30.1515 24.059 30.3184C23.8873 30.4854 23.6544 30.5792 23.4116 30.5792C23.1687 30.5792 22.9359 30.4854 22.7641 30.3184C22.5924 30.1515 22.496 29.9251 22.496 29.689V2.9474H11.2832V6.74916C11.2832 6.98524 11.1868 7.21165 11.0151 7.37859C10.8434 7.54552 10.6105 7.63931 10.3676 7.63931H4.23154V32.0822C4.23154 32.3183 4.13508 32.5447 3.96338 32.7117C3.79167 32.8786 3.55879 32.9724 3.31597 32.9724ZM34.64 33.779C34.3972 33.779 34.1643 33.6852 33.9926 33.5183C33.8209 33.3514 33.7244 33.1249 33.7244 32.8889V9.12246H28.6949V30.037C28.6948 30.2731 28.5983 30.4994 28.4266 30.6663C28.2549 30.8332 28.0221 30.927 27.7793 30.927C27.5365 30.927 27.3036 30.8332 27.1319 30.6663C26.9602 30.4994 26.8638 30.2731 26.8637 30.037V8.23231C26.8637 7.99623 26.9602 7.76982 27.1319 7.60288C27.3036 7.43595 27.5365 7.34217 27.7793 7.34217H34.64C34.8828 7.34217 35.1157 7.43595 35.2874 7.60288C35.4591 7.76982 35.5556 7.99623 35.5556 8.23231V32.8889C35.5556 33.1249 35.4591 33.3514 35.2874 33.5183C35.1157 33.6852 34.8828 33.779 34.64 33.779Z" fill="black"/>
<path d="M8.90021 15.5557H5.85134C5.73031 15.5557 5.6142 15.5091 5.52841 15.4261C5.44262 15.3431 5.39413 15.2304 5.39355 15.1127V9.56502C5.39355 9.44698 5.44179 9.33377 5.52764 9.2503C5.61349 9.16684 5.72993 9.11994 5.85134 9.11994H8.90021C9.02163 9.11994 9.13807 9.16684 9.22392 9.2503C9.30977 9.33377 9.358 9.44698 9.358 9.56502V15.1127C9.35742 15.2304 9.30894 15.3431 9.22315 15.4261C9.13736 15.5091 9.02125 15.5557 8.90021 15.5557ZM6.30913 14.6655H8.44242V10.0101H6.30913V14.6655ZM8.90021 23.7374H5.85134C5.73016 23.7374 5.61391 23.6907 5.5281 23.6075C5.44229 23.5243 5.3939 23.4114 5.39355 23.2936V17.7463C5.39355 17.6282 5.44179 17.515 5.52764 17.4316C5.61349 17.3481 5.72993 17.3012 5.85134 17.3012H8.90021C9.02163 17.3012 9.13807 17.3481 9.22392 17.4316C9.30977 17.515 9.358 17.6282 9.358 17.7463V23.2936C9.35765 23.4114 9.30927 23.5243 9.22346 23.6075C9.13764 23.6907 9.0214 23.7374 8.90021 23.7374ZM6.30913 22.8472H8.44242V18.1914H6.30913V22.8472ZM16.0321 8.55703H12.5826C12.4612 8.55703 12.3447 8.51014 12.2589 8.42668C12.173 8.34321 12.1248 8.23 12.1248 8.11196V4.75782C12.1248 4.63978 12.173 4.52657 12.2589 4.4431C12.3447 4.35964 12.4612 4.31274 12.5826 4.31274H16.0326C16.154 4.31274 16.2704 4.35964 16.3563 4.4431C16.4421 4.52657 16.4903 4.63978 16.4903 4.75782V8.11154C16.4904 8.17006 16.4786 8.22801 16.4556 8.28209C16.4326 8.33616 16.3988 8.3853 16.3563 8.42668C16.3137 8.46805 16.2632 8.50087 16.2075 8.52324C16.1519 8.5456 16.0923 8.55709 16.0321 8.55703ZM13.0404 7.66689H15.5748V5.20289H13.0404V7.66689ZM21.1035 8.55703H17.654C17.5326 8.55703 17.4161 8.51014 17.3303 8.42668C17.2444 8.34321 17.1962 8.23 17.1962 8.11196V4.75782C17.1962 4.63978 17.2444 4.52657 17.3303 4.4431C17.4161 4.35964 17.5326 4.31274 17.654 4.31274H21.104C21.2251 4.31319 21.3411 4.36028 21.4266 4.4437C21.512 4.52712 21.56 4.64007 21.56 4.75782V8.11154C21.5601 8.22943 21.5121 8.34255 21.4266 8.42608C21.341 8.5096 21.2248 8.5567 21.1035 8.55703ZM18.1118 7.66689H20.6444V5.20289H18.1118V7.66689ZM16.0321 14.816H12.5826C12.5225 14.816 12.4629 14.8045 12.4074 14.7821C12.3518 14.7598 12.3014 14.727 12.2589 14.6857C12.2164 14.6443 12.1826 14.5953 12.1596 14.5413C12.1366 14.4873 12.1248 14.4294 12.1248 14.3709V11.0189C12.1248 10.9009 12.173 10.7877 12.2589 10.7042C12.3447 10.6207 12.4612 10.5738 12.5826 10.5738H16.0326C16.154 10.5738 16.2704 10.6207 16.3563 10.7042C16.4421 10.7877 16.4903 10.9009 16.4903 11.0189V14.3726C16.4899 14.4905 16.4414 14.6033 16.3555 14.6864C16.2696 14.7695 16.1533 14.8161 16.0321 14.816ZM13.0404 13.9259H15.5748V11.464H13.0404V13.9259ZM21.1035 14.816H17.654C17.5939 14.816 17.5343 14.8045 17.4788 14.7821C17.4233 14.7598 17.3728 14.727 17.3303 14.6857C17.2878 14.6443 17.2541 14.5953 17.2311 14.5413C17.208 14.4873 17.1962 14.4294 17.1962 14.3709V11.0189C17.1962 10.9009 17.2444 10.7877 17.3303 10.7042C17.4161 10.6207 17.5326 10.5738 17.654 10.5738H21.104C21.2254 10.5738 21.3418 10.6207 21.4277 10.7042C21.5135 10.7877 21.5618 10.9009 21.5618 11.0189V14.3726C21.5613 14.4905 21.5128 14.6033 21.4269 14.6864C21.341 14.7695 21.2247 14.8161 21.1035 14.816ZM18.1118 13.9259H20.6444V11.464H18.1118V13.9259ZM16.0321 27.3399H12.5826C12.4612 27.3399 12.3447 27.293 12.2589 27.2096C12.173 27.1261 12.1248 27.0129 12.1248 26.8948V23.5407C12.1248 23.4227 12.173 23.3095 12.2589 23.226C12.3447 23.1425 12.4612 23.0956 12.5826 23.0956H16.0326C16.154 23.0956 16.2704 23.1425 16.3563 23.226C16.4421 23.3095 16.4903 23.4227 16.4903 23.5407V26.8965C16.4899 27.0144 16.4414 27.1272 16.3555 27.2103C16.2696 27.2934 16.1533 27.34 16.0321 27.3399ZM13.0404 26.4498H15.5748V23.9858H13.0404V26.4498ZM21.1035 27.3399H17.654C17.5326 27.3399 17.4161 27.293 17.3303 27.2096C17.2444 27.1261 17.1962 27.0129 17.1962 26.8948V23.5407C17.1962 23.4227 17.2444 23.3095 17.3303 23.226C17.4161 23.1425 17.5326 23.0956 17.654 23.0956H21.104C21.2254 23.0956 21.3418 23.1425 21.4277 23.226C21.5135 23.3095 21.5618 23.4227 21.5618 23.5407V26.8965C21.5613 27.0144 21.5128 27.1272 21.4269 27.2103C21.341 27.2934 21.2247 27.34 21.1035 27.3399ZM18.1118 26.4498H20.6444V23.9858H18.1118V26.4498ZM16.0321 21.0788H12.5826C12.4612 21.0788 12.3447 21.0319 12.2589 20.9485C12.173 20.865 12.1248 20.7518 12.1248 20.6337V17.28C12.1248 17.162 12.173 17.0488 12.2589 16.9653C12.3447 16.8818 12.4612 16.8349 12.5826 16.8349H16.0326C16.154 16.8349 16.2704 16.8818 16.3563 16.9653C16.4421 17.0488 16.4903 17.162 16.4903 17.28V20.6337C16.4903 20.6922 16.4785 20.7501 16.4555 20.8042C16.4324 20.8582 16.3987 20.9073 16.3561 20.9486C16.3135 20.9899 16.263 21.0227 16.2074 21.0451C16.1518 21.0674 16.0923 21.0789 16.0321 21.0788ZM13.0404 20.1887H15.5748V17.7251H13.0404V20.1887ZM21.1035 21.0788H17.654C17.5326 21.0788 17.4161 21.0319 17.3303 20.9485C17.2444 20.865 17.1962 20.7518 17.1962 20.6337V17.28C17.1962 17.162 17.2444 17.0488 17.3303 16.9653C17.4161 16.8818 17.5326 16.8349 17.654 16.8349H21.104C21.2254 16.8349 21.3418 16.8818 21.4277 16.9653C21.5135 17.0488 21.5618 17.162 21.5618 17.28V20.6337C21.5618 20.6922 21.5499 20.7501 21.5269 20.8042C21.5038 20.8582 21.4701 20.9073 21.4275 20.9486C21.385 20.9899 21.3345 21.0227 21.2789 21.0451C21.2233 21.0674 21.1637 21.0789 21.1035 21.0788ZM18.1118 20.1887H20.6444V17.7251H18.1118V20.1887ZM32.1083 18.1914H30.1281C30.0067 18.1914 29.8902 18.1445 29.8044 18.061C29.7185 17.9775 29.6703 17.8643 29.6703 17.7463V11.1435C29.6703 11.0255 29.7185 10.9123 29.8044 10.8288C29.8902 10.7454 30.0067 10.6985 30.1281 10.6985H32.1088C32.2302 10.6985 32.3466 10.7454 32.4325 10.8288C32.5183 10.9123 32.5666 11.0255 32.5666 11.1435V17.7463C32.5666 17.8048 32.5547 17.8627 32.5317 17.9167C32.5086 17.9707 32.4749 18.0198 32.4323 18.0611C32.3898 18.1025 32.3392 18.1353 32.2837 18.1576C32.2281 18.1799 32.1685 18.1914 32.1083 18.1914ZM30.5854 17.3012H31.6505V11.5886H30.585L30.5854 17.3012ZM32.1083 27.4641H30.1281C30.0067 27.4641 29.8902 27.4172 29.8044 27.3338C29.7185 27.2503 29.6703 27.1371 29.6703 27.019V20.4163C29.6703 20.2983 29.7185 20.185 29.8044 20.1016C29.8902 20.0181 30.0067 19.9712 30.1281 19.9712H32.1088C32.2302 19.9712 32.3466 20.0181 32.4325 20.1016C32.5183 20.185 32.5666 20.2983 32.5666 20.4163V27.019C32.5666 27.0775 32.5547 27.1354 32.5317 27.1895C32.5086 27.2435 32.4749 27.2926 32.4323 27.3339C32.3898 27.3752 32.3392 27.408 32.2837 27.4304C32.2281 27.4527 32.1685 27.4642 32.1083 27.4641ZM30.5854 26.574H31.6505V20.8614H30.585L30.5854 26.574ZM8.13156 30.7856C8.0223 30.7855 7.91666 30.7475 7.83374 30.6783C7.75082 30.6091 7.69609 30.5134 7.67944 30.4084C7.45317 28.974 6.01135 27.7922 5.99696 27.7803C5.94937 27.7434 5.90983 27.6975 5.88068 27.6455C5.85153 27.5935 5.83335 27.5364 5.82721 27.4775C5.82106 27.4186 5.82707 27.359 5.84488 27.3024C5.8627 27.2458 5.89196 27.1932 5.93096 27.1477C5.96995 27.1022 6.01789 27.0647 6.07198 27.0374C6.12606 27.0102 6.18519 26.9937 6.24591 26.9889C6.30663 26.9842 6.36772 26.9912 6.42559 27.0097C6.48346 27.0282 6.53695 27.0578 6.58293 27.0966C7.06858 27.5102 7.49395 27.9862 7.8473 28.5115C8.0217 27.9333 8.3125 27.5569 8.71928 27.3895C8.83127 27.3432 8.95759 27.342 9.07047 27.3863C9.18334 27.4305 9.27352 27.5165 9.32116 27.6254C9.3688 27.7343 9.37 27.8571 9.3245 27.9668C9.279 28.0766 9.19052 28.1642 9.07853 28.2106C8.67524 28.3763 8.53485 29.5377 8.58848 30.3121C8.5965 30.4267 8.55865 30.5399 8.48284 30.628C8.40703 30.7161 8.29913 30.7722 8.1817 30.7848C8.16502 30.7859 8.14828 30.7862 8.13156 30.7856Z" fill="black"/>
<path d="M8.13404 30.9174C8.03034 30.9173 7.92974 30.883 7.84871 30.8201C7.76769 30.7572 7.71103 30.6694 7.68802 30.5711C7.55373 29.9976 6.36872 29.7255 5.81588 29.6835C5.75594 29.679 5.6975 29.663 5.6439 29.6365C5.5903 29.61 5.5426 29.5735 5.50351 29.5291C5.42457 29.4394 5.38551 29.3229 5.39494 29.2052C5.40436 29.0875 5.46149 28.9782 5.55376 28.9015C5.64603 28.8247 5.76588 28.7867 5.88695 28.7959C6.12892 28.8141 8.26222 29.0146 8.58049 30.3732C8.59574 30.4384 8.59569 30.5061 8.58033 30.5713C8.56498 30.6366 8.53471 30.6976 8.49178 30.7498C8.44885 30.8021 8.39436 30.8443 8.33235 30.8734C8.27034 30.9024 8.20241 30.9174 8.1336 30.9174H8.13404Z" fill="black"/>
<path d="M23.4112 32.3192H12.6658C12.5444 32.3192 12.4279 32.2723 12.3421 32.1889C12.2562 32.1054 12.208 31.9922 12.208 31.8741C12.208 31.7561 12.2562 31.6429 12.3421 31.5594C12.4279 31.476 12.5444 31.4291 12.6658 31.4291H23.4112C23.5326 31.4291 23.649 31.476 23.7349 31.5594C23.8207 31.6429 23.869 31.7561 23.869 31.8741C23.869 31.9922 23.8207 32.1054 23.7349 32.1889C23.649 32.2723 23.5326 32.3192 23.4112 32.3192Z" fill="#075E54"/>
</g>
<defs>
<clipPath id="clip0_596_13379">
<rect width="36" height="35" fill="white" transform="translate(0.501953 0.766357)"/>
</clipPath>
</defs>
</svg>
