<svg width="37" height="37" viewBox="0 0 37 37" fill="none" xmlns="http://www.w3.org/2000/svg">
<g clip-path="url(#clip0_596_13641)">
<path d="M24.9521 22.4778H19.7451V31.2812H24.9521V22.4778Z" fill="#B4E1FA"/>
<path d="M30.6982 22.4778H25.4912V31.2812H30.6982V22.4778Z" fill="#B4E1FA"/>
<path d="M25.4912 14.1317V19.0874H30.6982V16.5616L25.4912 14.1317Z" fill="#B4E1FA"/>
<path d="M19.7451 19.0874H24.9521V13.8809L19.7451 11.4509V19.0874Z" fill="#B4E1FA"/>
<path d="M16.3343 22.4778H11.1426V31.2812H16.3343V22.4778Z" fill="#B4E1FA"/>
<path d="M10.6038 22.4778H5.41113V31.2812H10.6038V22.4778Z" fill="#B4E1FA"/>
<path d="M5.41113 19.0873H10.6038V10.816L5.41113 13.7325V19.0873Z" fill="#B4E1FA"/>
<path d="M11.1426 10.5133V19.0874H16.3343V9.85899L14.1347 8.83264L11.1426 10.5133Z" fill="#B4E1FA"/>
<path d="M13.7117 5.30725L2.53027 11.5879V11.8506C2.53027 11.8613 2.53055 11.8716 2.53119 11.8824V34.1437H33.5486V14.5642L13.7117 5.30725ZM16.8728 31.551C16.8728 31.6995 16.752 31.8203 16.6035 31.8203H5.14189C4.99339 31.8203 4.87259 31.6994 4.87259 31.551V22.209C4.87259 22.0605 4.99346 21.9397 5.14189 21.9397H16.6035C16.752 21.9397 16.8728 22.0605 16.8728 22.209V31.551ZM16.8728 19.3567C16.8728 19.5052 16.752 19.626 16.6035 19.626H5.14189C4.99339 19.626 4.87259 19.5052 4.87259 19.3567V13.6481L4.87351 13.6444L4.87344 13.5811C4.87126 13.4811 4.92399 13.3888 5.01083 13.3399L13.877 8.35987C13.8735 8.36177 13.8702 8.36367 13.8705 8.36367C13.8706 8.36367 13.9231 8.33913 13.9231 8.33913L13.9594 8.31227C14.0059 8.27788 14.0633 8.25897 14.121 8.25897C14.1602 8.25897 14.1986 8.26748 14.2341 8.28393L16.701 9.4353L16.7094 9.44036L16.7309 9.45042L16.7375 9.45428L16.7442 9.45906L16.7559 9.46595L16.7719 9.47763L16.7938 9.49745L16.8097 9.51503L16.8155 9.52213L16.8267 9.53908L16.8299 9.54295L16.8358 9.55244C16.8358 9.55244 16.8419 9.56341 16.8438 9.56678C16.8452 9.56995 16.8542 9.59034 16.8542 9.59034C16.855 9.59252 16.8611 9.60974 16.8611 9.60974L16.8678 9.63864L16.872 9.67099C16.872 9.68076 16.8723 9.69053 16.8729 9.70045L16.8728 19.3567ZM31.2369 31.551C31.2369 31.6995 31.116 31.8203 30.9676 31.8203H19.4764C19.3279 31.8203 19.2071 31.6994 19.2071 31.551V22.209C19.2071 22.0605 19.3279 21.9397 19.4764 21.9397H30.9676C31.1161 21.9397 31.2369 22.0605 31.2369 22.209V31.551ZM31.2369 19.3567C31.2369 19.5052 31.116 19.626 30.9676 19.626H19.4764C19.3279 19.626 19.2071 19.5052 19.2071 19.3567V11.0526C19.2071 10.9063 19.3304 10.7828 19.4766 10.7828L19.5022 10.7835L19.529 10.7826C19.567 10.7826 19.6057 10.7913 19.642 10.8084L31.0819 16.1468C31.1761 16.1905 31.237 16.2862 31.237 16.3905V19.3567H31.2369Z" fill="#DEC3A1"/>
<path d="M32.1195 5.9873H28.3867V8.35684C28.3861 8.36745 28.3857 8.37828 28.3857 8.38967V8.67563L32.1195 10.4178V5.9873H32.1195Z" fill="#5B5D6E"/>
<path d="M13.7116 2.42273L1.07227 9.52218V11.7889L13.569 4.76983C13.6086 4.74754 13.6543 4.73587 13.701 4.73587C13.7407 4.73587 13.7789 4.74403 13.8147 4.76111L35.0074 14.6508V12.3601L13.7116 2.42273Z" fill="#707487"/>
<path d="M35.9952 12.1881V15.0735C35.9952 15.3186 35.8695 15.5475 35.663 15.6786C35.5454 15.754 35.4117 15.7917 35.277 15.7917C35.1738 15.7917 35.0697 15.7693 34.9735 15.7244L34.5363 15.5197V33.6948H35.3667C35.7635 33.6948 36.0849 34.0162 36.0849 34.4129C36.0849 34.8089 35.7635 35.1311 35.3667 35.1311H33.8181H2.26205H0.832805C0.436875 35.1311 0.114633 34.8088 0.114633 34.4129C0.114633 34.0162 0.436945 33.6948 0.832805 33.6948H1.5438V12.6567L1.15505 12.8757C0.932438 13.0005 0.660399 12.9978 0.440461 12.8686C0.220523 12.7402 0.0849609 12.5041 0.0849609 12.2491V9.3646C0.0849609 9.10424 0.225023 8.86546 0.451219 8.73798L13.3493 1.49403C13.5513 1.37999 13.7946 1.37106 14.0047 1.46886L27.3992 7.71992V5.71799C27.3992 5.32121 27.7206 4.99981 28.1174 4.99981H32.3889C32.7858 4.99981 33.1071 5.32121 33.1071 5.71799V10.3836L35.5804 11.5373C35.8336 11.6557 35.9952 11.9089 35.9952 12.1881ZM34.5588 13.9459V12.6459L13.7309 2.92686L1.52138 9.78479V11.0219L13.3493 4.37846C13.4579 4.31743 13.5791 4.28692 13.7012 4.28692C13.8044 4.28692 13.9085 4.30843 14.0047 4.35428L34.5588 13.9459ZM33.0999 33.6947V14.85L13.7309 5.81136L2.97931 11.8505C2.97931 11.8586 2.98022 11.8658 2.98022 11.8738V33.6947H33.0999ZM31.6707 9.713V6.43616H28.8355V8.36455C28.8355 8.37264 28.8346 8.38072 28.8346 8.38972L31.6707 9.713Z" fill="black"/>
<path d="M31.6864 22.2089V31.551C31.6864 31.9478 31.365 32.2691 30.9682 32.2691H19.477C19.0802 32.2691 18.7588 31.9477 18.7588 31.551V22.2089C18.7588 21.8121 19.0802 21.4907 19.477 21.4907H30.9682C31.365 21.4907 31.6864 21.8121 31.6864 22.2089ZM30.25 30.8327V22.9271H25.9408V30.8327H30.25ZM24.5044 30.8327V22.9271H20.1951V30.8327H24.5044Z" fill="black"/>
<path d="M31.6864 16.3905V19.3568C31.6864 19.7527 31.365 20.0749 30.9682 20.0749H19.477C19.0802 20.0749 18.7588 19.7526 18.7588 19.3568V11.0525C18.7588 10.6476 19.0973 10.3208 19.5012 10.3343C19.6116 10.3298 19.7257 10.3514 19.8325 10.4017L31.2717 15.7397C31.5248 15.8572 31.6864 16.1113 31.6864 16.3905ZM30.25 18.6385V16.8475L25.9408 14.8366V18.6386L30.25 18.6385ZM24.5044 18.6385V14.1668L20.1951 12.1558V18.6385H24.5044Z" fill="black"/>
<path d="M17.3218 22.2089V31.551C17.3218 31.9478 17.0004 32.2691 16.6036 32.2691H5.142C4.74607 32.2691 4.42383 31.9477 4.42383 31.551V22.2089C4.42383 21.8121 4.74614 21.4907 5.142 21.4907H16.6036C17.0004 21.4907 17.3218 21.8121 17.3218 22.2089ZM15.8854 30.8327V22.9271H11.5914V30.8327H15.8854ZM10.1551 30.8327V22.9271H5.86017V30.8327H10.1551Z" fill="black"/>
<path d="M17.3218 9.68695V19.3567C17.3218 19.7526 17.0004 20.0749 16.6036 20.0749H5.142C4.74607 20.0749 4.42383 19.7525 4.42383 19.3567V13.5958C4.42383 13.5939 4.42474 13.5922 4.42474 13.5904C4.41933 13.3336 4.5513 13.0831 4.791 12.9485L13.6536 7.97041C13.6662 7.96324 13.6788 7.95783 13.6922 7.95157C13.8969 7.79984 14.1761 7.76215 14.4239 7.87704L16.9071 9.03607C16.9125 9.03874 16.917 9.04148 16.9215 9.04416C16.935 9.05041 16.9484 9.05766 16.961 9.06483C16.97 9.07024 16.9789 9.07559 16.987 9.081C16.9977 9.08726 17.0085 9.0945 17.0184 9.10167C17.0283 9.10884 17.0382 9.11602 17.048 9.12319C17.0561 9.12945 17.0642 9.13669 17.0714 9.14295C17.0821 9.15195 17.092 9.16088 17.101 9.16988C17.1081 9.17705 17.1153 9.18338 17.1216 9.19055C17.1306 9.20039 17.1396 9.21031 17.1486 9.22015C17.1548 9.22823 17.1611 9.23541 17.1674 9.24349C17.1755 9.25334 17.1827 9.26325 17.1898 9.27401C17.197 9.28301 17.2033 9.29285 17.2087 9.30185C17.2149 9.3117 17.2204 9.3207 17.2266 9.33061C17.2329 9.34137 17.2383 9.35304 17.2445 9.3638C17.249 9.3728 17.2526 9.38173 17.2571 9.39073C17.2625 9.40331 17.2679 9.41583 17.2733 9.42841C17.276 9.43741 17.2796 9.4455 17.2823 9.45443C17.2868 9.46702 17.2913 9.48045 17.2949 9.49395C17.2976 9.50379 17.3003 9.51279 17.3021 9.5227C17.3047 9.53529 17.3075 9.54696 17.3101 9.55948C17.312 9.57115 17.3137 9.58373 17.3156 9.59541C17.3165 9.60616 17.3182 9.61608 17.3191 9.62684C17.3201 9.64118 17.321 9.65559 17.321 9.67085C17.3209 9.6762 17.3218 9.68161 17.3218 9.68695ZM15.8854 18.6385V10.1448L14.1536 9.33687L11.5914 10.776V18.6385H15.8854ZM10.1551 18.6385V11.5831L5.86024 13.9954V18.6386H10.1551V18.6385Z" fill="black"/>
</g>
<defs>
<clipPath id="clip0_596_13641">
<rect width="36" height="36" fill="white" transform="translate(0.0849609 0.266357)"/>
</clipPath>
</defs>
</svg>
