<svg width="125" height="129" viewBox="0 0 125 129" fill="none" xmlns="http://www.w3.org/2000/svg">
<path d="M25.4896 71.1727C23.7918 71.6543 22.0003 71.912 20.1487 71.912C9.3337 71.912 0.566406 63.1194 0.566406 52.2732C0.566406 41.4269 9.3337 32.6343 20.1487 32.6343C20.2958 32.6343 20.4425 32.636 20.5889 32.6392C19.9164 30.375 19.5553 27.9763 19.5553 25.4929C19.5553 11.6886 30.7137 0.498047 44.4783 0.498047C52.1257 0.498047 58.9687 3.95237 63.5405 9.39003C69.5345 4.57091 77.1431 1.68828 85.4231 1.68828C104.759 1.68828 120.434 17.4084 120.434 36.8001C120.434 45.0559 117.593 52.6463 112.838 58.6413C119.114 61.9132 123.401 68.4934 123.401 76.0778C123.401 86.924 114.634 95.7166 103.819 95.7166C98.4731 95.7166 93.6278 93.5686 90.0942 90.0862C83.8875 99.9084 72.9531 106.429 60.5002 106.429C41.1642 106.429 25.4894 90.7086 25.4894 71.3169C25.4894 71.2688 25.4895 71.2207 25.4896 71.1727Z" fill="#C7DDF1"/>
<path d="M32.676 65.9097C31.1028 66.3554 29.4428 66.5939 27.7271 66.5939C17.7059 66.5939 9.58203 58.4561 9.58203 48.4176C9.58203 38.379 17.7059 30.2412 27.7271 30.2412C27.8634 30.2412 27.9994 30.2427 28.1349 30.2457C27.5119 28.1501 27.1773 25.93 27.1773 23.6316C27.1773 10.8553 37.5167 0.498047 50.271 0.498047C57.3572 0.498047 63.6979 3.69513 67.9342 8.72786C73.4882 4.26761 80.5384 1.59964 88.2107 1.59964C106.128 1.59964 120.652 16.1491 120.652 34.0968C120.652 41.7378 118.019 48.7629 113.613 54.3115C119.429 57.3397 123.401 63.4299 123.401 70.4495C123.401 80.4881 115.277 88.6259 105.256 88.6259C100.303 88.6259 95.8132 86.6378 92.539 83.4147C86.7878 92.5055 76.656 98.5403 65.117 98.5403C47.2002 98.5403 32.6758 83.9908 32.6758 66.0431C32.6758 65.9986 32.6759 65.9541 32.676 65.9097Z" fill="#EAF9FF"/>
<path d="M110.76 13.9353C118.277 21.3567 120.205 31.5916 115.068 36.7956C109.93 41.9997 106.658 29.9879 99.141 22.5665C91.6241 15.1451 82.7085 15.1244 87.8464 9.92034C92.9843 4.71632 103.243 6.51387 110.76 13.9353Z" fill="white"/>
<path d="M118.087 63.7462C121.749 69.4256 121.443 76.1412 117.403 78.7458C113.363 81.3504 112.909 73.723 109.247 68.0436C105.585 62.3641 100.103 60.7834 104.142 58.1788C108.182 55.5742 114.425 58.0668 118.087 63.7462Z" fill="white"/>
<path d="M59.7561 9.09528C64.5649 13.843 65.7256 20.4645 62.3486 23.885C58.9716 27.3054 56.87 20.6947 52.0612 15.9471C47.2524 11.1994 41.5575 10.1125 44.9344 6.69208C48.3114 3.27165 54.9473 4.34759 59.7561 9.09528Z" fill="white"/>
<path d="M89.1536 46.4942C98.0706 58.0839 97.9712 73.1174 88.9315 80.0724C79.8919 87.0273 85.7266 66.5759 76.8096 54.9862C67.8926 43.3964 47.6006 45.0571 56.6402 38.1021C65.6798 31.1472 80.2366 34.9044 89.1536 46.4942Z" fill="white"/>
<path d="M40.2156 41.8157C43.8688 48.3842 43.0428 55.8155 38.3707 58.414C33.6986 61.0125 33.576 53.0431 29.9228 46.4746C26.2696 39.9061 20.4693 37.2259 25.1414 34.6274C29.8135 32.0289 36.5624 35.2472 40.2156 41.8157Z" fill="white"/>
<ellipse cx="62.6421" cy="123.205" rx="57.2632" ry="5.29323" fill="#C7DDF1"/>
</svg>
