<svg width="175" height="162" viewBox="0 0 175 162" fill="none" xmlns="http://www.w3.org/2000/svg">
    <path d="M120.757 61.6121C121.229 60.3258 122.078 59.2124 123.194 58.4183C124.311 57.6243 125.641 57.1869 127.011 57.1637H169.759C170.498 57.1361 171.234 57.2709 171.915 57.5586C172.596 57.8464 173.205 58.2801 173.7 58.829C174.195 59.378 174.564 60.029 174.78 60.7359C174.996 61.4428 175.054 62.1886 174.95 62.9204L163.907 155.579C163.672 157.156 162.884 158.599 161.684 159.649C160.483 160.698 158.949 161.287 157.354 161.309H21.7123C20.9761 161.337 20.2427 161.203 19.5638 160.917C18.8848 160.631 18.2767 160.2 17.7824 159.654C17.2881 159.108 16.9195 158.46 16.7026 157.756C16.4857 157.052 16.4257 156.308 16.5269 155.579L25.7869 77.7289C26.0212 76.1515 26.8091 74.7089 28.0096 73.6591C29.21 72.6093 30.7448 72.0208 32.3393 71.9988H106.152C109.35 71.9443 112.457 70.9229 115.064 69.069C117.671 67.215 119.656 64.6154 120.757 61.6121Z" fill="#184680"/>
    <path d="M18.9675 157.042H160.702L168.777 61.6758H27.0473L18.9675 157.042Z" fill="#F0F0F0"/>
    <path d="M18.9675 157.042H160.702L166.545 61.6758H27.0473L18.9675 157.042Z" fill="#E0E0E0"/>
    <path d="M18.9675 157.042H160.702L165.573 58.6479H23.8432L18.9675 157.042Z" fill="#F0F0F0"/>
    <path d="M18.9675 157.042H160.702L162.63 58.6479H23.8432L18.9675 157.042Z" fill="#E0E0E0"/>
    <path d="M18.9675 157.042H160.702L161.546 55.978H19.8166L18.9675 157.042Z" fill="#F0F0F0"/>
    <path d="M18.9674 157.042H160.702L157.792 57.8896H16.9755L18.9674 157.042Z" fill="#E0E0E0"/>
    <path d="M18.9674 157.042H160.702L156.494 58.6479H14.7646L18.9674 157.042Z" fill="#F0F0F0"/>
    <path d="M18.9674 157.041H160.702L154 60.1323H12.2708L18.9674 157.041Z" fill="#E0E0E0"/>
    <path d="M18.9675 157.042H160.702L152.932 60.9604H11.2028L18.9675 157.042Z" fill="#F0F0F0"/>
    <path d="M89.9444 67.6305C89.9523 67.0109 90.0848 66.3992 90.334 65.8319C90.5832 65.2645 90.944 64.7531 91.395 64.3281C91.8459 63.9031 92.3777 63.5732 92.9588 63.3579C93.5399 63.1427 94.1583 63.0466 94.7773 63.0753H137.526C139.181 63.1388 140.768 63.7502 142.038 64.8134C143.308 65.8766 144.189 67.3314 144.543 68.9495L161.434 155.461C162.064 158.703 159.949 161.335 156.708 161.335H21.0661C17.8193 161.335 14.6579 158.703 14.0437 155.461L0.111079 84.1425C-0.519068 80.9009 1.59566 78.2682 4.83718 78.2682H78.6551C85.0634 78.2682 89.7254 73.8572 89.9444 67.6305Z" fill="#184680"/>
    <path opacity="0.2" d="M89.9444 67.6305C89.9523 67.0109 90.0848 66.3992 90.334 65.8319C90.5832 65.2645 90.944 64.7531 91.395 64.3281C91.8459 63.9031 92.3777 63.5732 92.9588 63.3579C93.5399 63.1427 94.1583 63.0466 94.7773 63.0753H137.526C139.181 63.1388 140.768 63.7502 142.038 64.8134C143.308 65.8766 144.189 67.3314 144.543 68.9495L161.434 155.461C162.064 158.703 159.949 161.335 156.708 161.335H21.0661C17.8193 161.335 14.6579 158.703 14.0437 155.461L0.111079 84.1425C-0.519068 80.9009 1.59566 78.2682 4.83718 78.2682H78.6551C85.0634 78.2682 89.7254 73.8572 89.9444 67.6305Z" fill="black"/>
    <path opacity="0.2" d="M88.741 98.7839C79.6935 102.299 69.8069 103.052 60.3314 100.948C50.8559 98.8442 42.217 93.9778 35.5072 86.9643C28.7974 79.9508 24.3179 71.1051 22.6353 61.5458C20.9527 51.9865 22.1424 42.1429 26.0541 33.2598C29.9659 24.3766 36.4238 16.8529 44.6115 11.64C52.7991 6.42708 62.3486 3.75909 72.0525 3.97339C81.7564 4.1877 91.1788 7.27467 99.1283 12.844C107.078 18.4132 113.197 26.2147 116.713 35.2619C119.048 41.2694 120.177 47.6781 120.035 54.1219C119.893 60.5658 118.483 66.9185 115.886 72.8174C113.288 78.7162 109.554 84.0455 104.896 88.5009C100.239 92.9563 94.7492 96.4505 88.741 98.7839Z" fill="#184680"/>
    <path opacity="0.1" d="M79.86 4.77445L41.3676 92.194C40.7749 91.7454 40.1874 91.2808 39.6107 90.8108C35.8903 87.7331 32.6505 84.1171 29.9983 80.0823L63.2465 4.57152C68.7549 3.68433 74.3749 3.75298 79.86 4.77445Z" fill="white"/>
    <path opacity="0.1" d="M107.223 19.9404L71.0326 102.132C63.5154 102.14 56.097 100.419 49.3513 97.1013L88.869 7.34814C95.8699 10.0861 102.149 14.3941 107.223 19.9404Z" fill="white"/>
    <path d="M30.5644 19.9779C37.1038 11.9874 45.8659 6.11546 55.7425 3.10467C65.6192 0.0938774 76.1668 0.0794545 86.0516 3.06323C95.9365 6.047 104.715 11.8949 111.276 19.8676C117.837 27.8402 121.887 37.5794 122.913 47.8537C123.939 58.1279 121.896 68.4757 117.041 77.5885C112.186 86.7013 104.738 94.1699 95.6385 99.0498C86.539 103.93 76.1968 106.002 65.9198 105.004C55.6428 104.006 45.8925 99.9828 37.9019 93.4434C27.1879 84.6736 20.396 72.0072 19.02 58.2301C17.644 44.4531 21.7966 30.6936 30.5644 19.9779ZM108.062 83.3985C114.064 76.0609 117.757 67.1081 118.671 57.6723C119.586 48.2364 117.682 38.7412 113.201 30.3873C108.719 22.0334 101.861 15.1959 93.4936 10.7396C85.1262 6.2832 75.6253 4.40805 66.1922 5.35121C56.7592 6.29436 47.8176 10.0135 40.4981 16.0383C33.1787 22.0631 27.8101 30.123 25.0712 39.1988C22.3324 48.2747 22.3462 57.9588 25.111 67.0268C27.8758 76.0948 33.2674 84.1393 40.604 90.1432C45.476 94.1301 51.0857 97.1183 57.1126 98.9371C63.1396 100.756 69.4658 101.37 75.7299 100.743C81.9941 100.117 88.0735 98.2629 93.6211 95.2868C99.1686 92.3108 104.076 88.2711 108.062 83.3985Z" fill="#F58220"/>
    <path d="M112.67 83.2166C117.813 86.2872 122.705 89.6622 127.511 93.1441C132.317 96.6259 137 100.252 141.609 103.974C146.218 107.696 150.741 111.525 155.104 115.546C157.29 117.554 159.426 119.616 161.512 121.73C163.605 123.866 165.661 126.002 167.6 128.32C168.048 128.857 168.295 129.533 168.298 130.232C168.302 130.931 168.062 131.609 167.619 132.15C167.177 132.691 166.56 133.061 165.874 133.196C165.188 133.332 164.477 133.224 163.862 132.891C161.192 131.45 158.692 129.858 156.199 128.229C153.705 126.601 151.27 124.902 148.866 123.156C144.06 119.674 139.409 116.006 134.854 112.219C130.298 108.433 125.813 104.561 121.45 100.535C117.087 96.5084 112.809 92.3858 108.783 87.9534C108.28 87.4051 107.992 86.694 107.971 85.9505C107.95 85.2069 108.198 84.4807 108.669 83.9051C109.14 83.3294 109.803 82.943 110.536 82.8165C111.269 82.69 112.023 82.8321 112.66 83.2166H112.67Z" fill="#F58220"/>
</svg>