<svg width="120" height="105" viewBox="0 0 120 105" fill="none" xmlns="http://www.w3.org/2000/svg">
<path d="M61.9131 24.3614C61.6893 25.1119 62.1167 25.9007 62.8669 26.1244L62.9596 26.1521L62.9621 26.1492C63.6856 26.3124 64.4175 25.8872 64.6301 25.1695C66.6736 18.3029 73.1109 13.5068 80.2837 13.5068C81.0665 13.5068 81.7013 12.8719 81.7013 12.0891C81.7013 11.3063 81.0664 10.6715 80.2837 10.6715C71.5781 10.6715 64.2622 16.4676 61.9131 24.3614ZM61.9131 24.3614L62.0568 24.4043M61.9131 24.3614C61.9131 24.3614 61.9131 24.3615 61.9131 24.3615L62.0568 24.4043M62.0568 24.4043C61.8567 25.0752 62.2388 25.7806 62.9098 25.9807L62.0568 24.4043Z" fill="#178E3B" stroke="#178E3B" stroke-width="0.3"/>
<path d="M98.0295 74.2035H90.4238C89.7239 74.2035 89.1562 73.6357 89.1562 72.9358C89.1562 72.2359 89.7239 71.6682 90.4238 71.6682H98.0295C108.514 71.6682 117.044 63.1378 117.044 52.6537C117.044 42.1695 108.514 33.6392 98.0295 33.6392H97.8466C97.479 33.6392 97.1295 33.4798 96.8887 33.2018C96.6478 32.9239 96.5392 32.5553 96.5917 32.1914C96.7049 31.4018 96.7619 30.6086 96.7619 29.8363C96.7619 20.7501 89.3688 13.357 80.2826 13.357C76.7477 13.357 73.3767 14.4616 70.5335 16.5523C69.9087 17.0114 69.0214 16.8076 68.6601 16.1204C60.6079 0.787504 39.5766 -1.27154 28.6729 12.0667C24.0796 17.6859 22.2748 24.9956 23.721 32.1199C23.8804 32.9067 23.2782 33.6402 22.4787 33.6402H21.9708C11.4866 33.6402 2.95629 42.1705 2.95629 52.6546C2.95629 63.1388 11.4866 71.6691 21.9708 71.6691H29.5765C30.2764 71.6691 30.8441 72.2368 30.8441 72.9368C30.8441 73.6367 30.2764 74.2044 29.5765 74.2044H21.9708C10.0884 74.2044 0.420898 64.5369 0.420898 52.6546C0.420898 41.1055 9.55322 31.6489 20.9757 31.1274C19.9027 23.7361 21.9545 16.2806 26.7099 10.4623C38.3838 -3.8194 60.7561 -2.21862 70.2134 13.7065C73.2305 11.815 76.6828 10.8227 80.2822 10.8227C91.2906 10.8227 100.014 20.1924 99.2505 31.1392C110.568 31.7739 119.579 41.1806 119.579 52.6536C119.579 64.5369 109.911 74.2035 98.029 74.2035L98.0295 74.2035Z" fill="#178E3B"/>
<path d="M27.9889 72.2199C27.9889 89.7774 42.2728 104.061 59.8301 104.061C77.3876 104.061 91.6713 89.7772 91.6713 72.2199C91.6713 54.6624 77.3876 40.3787 59.8301 40.3787C42.2726 40.3787 27.9889 54.6626 27.9889 72.2199ZM30.8248 72.2199C30.8248 56.2267 43.8367 43.2145 59.8301 43.2145C75.8233 43.2145 88.8355 56.2265 88.8355 72.2199C88.8355 88.2131 75.8233 101.225 59.8301 101.225C43.837 101.225 30.8248 88.2133 30.8248 72.2199Z" fill="#178E3B" stroke="#178E3B" stroke-width="0.3"/>
<path d="M59.3312 84.9777C59.3312 85.5729 59.814 86.0557 60.4093 86.0557C61.0045 86.0557 61.4873 85.5736 61.4873 84.9777V60.8481C61.4873 60.2528 61.0045 59.77 60.4093 59.77C59.814 59.77 59.3312 60.2528 59.3312 60.8481V84.9777Z" fill="#178E3B" stroke="#178E3B" stroke-width="0.3"/>
<path d="M60.4092 62.3752L53.7473 69.0372C53.3267 69.4585 52.6436 69.4584 52.2225 69.0372C51.8013 68.6161 51.8013 67.9338 52.2225 67.5126L59.6468 60.0883C59.6468 60.0883 59.6468 60.0883 59.6469 60.0882C60.0675 59.667 60.7504 59.6672 61.1715 60.0882L68.5959 67.5126C69.017 67.9337 69.0171 68.6159 68.5961 69.0371C68.3856 69.2483 68.1088 69.353 67.8336 69.353L60.4092 62.3752ZM60.4092 62.3752L67.0713 69.0372C67.2815 69.2475 67.5581 69.353 67.8336 69.353L60.4092 62.3752Z" fill="#178E3B" stroke="#178E3B" stroke-width="0.3"/>
</svg>
